<svg xmlns="http://www.w3.org/2000/svg" viewBox="0 0 32 40" x="0px" y="0px"><title>user interface, ui basic, app, ui interface camera, camera</title><g data-name="Layer 26"><path d="M25,30H7a5,5,0,0,1-5-5V11A5,5,0,0,1,7,6H9.1A5,5,0,0,1,14,2h4a5,5,0,0,1,4.9,4H25a5,5,0,0,1,5,5V25A5,5,0,0,1,25,30ZM7,8a3,3,0,0,0-3,3V25a3,3,0,0,0,3,3H25a3,3,0,0,0,3-3V11a3,3,0,0,0-3-3H22a1,1,0,0,1-1-1,3,3,0,0,0-3-3H14a3,3,0,0,0-3,3,1,1,0,0,1-1,1Z"/><path d="M16,25a7,7,0,1,1,7-7A7,7,0,0,1,16,25Zm0-12a5,5,0,1,0,5,5A5,5,0,0,0,16,13Z"/><path d="M18,7H14a1,1,0,0,1,0-2h4a1,1,0,0,1,0,2Z"/></g><text x="0" y="47" fill="#000000" font-size="5px" font-weight="bold" font-family="'Helvetica Neue', Helvetica, Arial-Unicode, Arial, Sans-serif">Created by Hakim Fadhlullah</text><text x="0" y="52" fill="#000000" font-size="5px" font-weight="bold" font-family="'Helvetica Neue', Helvetica, Arial-Unicode, Arial, Sans-serif">from the Noun Project</text></svg>