<svg width="65" height="64" viewBox="0 0 65 64" fill="none" xmlns="http://www.w3.org/2000/svg">
<path d="M15.4108 42.922C15.8261 42.922 16.1971 42.852 16.5238 42.712C16.8505 42.572 17.1258 42.376 17.3498 42.124C17.5785 41.872 17.7511 41.571 17.8678 41.221C17.9891 40.871 18.0498 40.486 18.0498 40.066V33.969H19.4008V40.066C19.4008 40.6447 19.3075 41.1813 19.1208 41.676C18.9388 42.1707 18.6751 42.6 18.3298 42.964C17.9891 43.3233 17.5715 43.6057 17.0768 43.811C16.5821 44.0163 16.0268 44.119 15.4108 44.119C14.7948 44.119 14.2395 44.0163 13.7448 43.811C13.2501 43.6057 12.8301 43.3233 12.4848 42.964C12.1395 42.6 11.8735 42.1707 11.6868 41.676C11.5048 41.1813 11.4138 40.6447 11.4138 40.066V33.969H12.7648V40.059C12.7648 40.479 12.8231 40.864 12.9398 41.214C13.0611 41.564 13.2338 41.865 13.4578 42.117C13.6865 42.369 13.9641 42.5673 14.2908 42.712C14.6221 42.852 14.9955 42.922 15.4108 42.922ZM22.5886 42.292C22.8173 42.6 23.067 42.817 23.3376 42.943C23.6083 43.069 23.9116 43.132 24.2476 43.132C24.9103 43.132 25.419 42.8963 25.7736 42.425C26.1283 41.9537 26.3056 41.2817 26.3056 40.409C26.3056 39.947 26.2636 39.5503 26.1796 39.219C26.1003 38.8877 25.9836 38.617 25.8296 38.407C25.6756 38.1923 25.4866 38.036 25.2626 37.938C25.0386 37.84 24.7843 37.791 24.4996 37.791C24.0936 37.791 23.7366 37.8843 23.4286 38.071C23.1253 38.2577 22.8453 38.5213 22.5886 38.862V42.292ZM22.5256 38.008C22.8243 37.6393 23.1696 37.343 23.5616 37.119C23.9536 36.895 24.4016 36.783 24.9056 36.783C25.3163 36.783 25.6873 36.8623 26.0186 37.021C26.35 37.175 26.6323 37.406 26.8656 37.714C27.099 38.0173 27.2786 38.3953 27.4046 38.848C27.5306 39.3007 27.5936 39.821 27.5936 40.409C27.5936 40.9317 27.5236 41.4193 27.3836 41.872C27.2436 42.32 27.0406 42.7097 26.7746 43.041C26.5133 43.3677 26.1913 43.6267 25.8086 43.818C25.4306 44.0047 25.0036 44.098 24.5276 44.098C24.0936 44.098 23.7203 44.0257 23.4076 43.881C23.0996 43.7317 22.8266 43.5263 22.5886 43.265V46.401H21.3356V36.909H22.0846C22.262 36.909 22.3716 36.9953 22.4136 37.168L22.5256 38.008ZM30.4713 33.689V44H29.2253V33.689H30.4713ZM35.4809 36.797C35.9989 36.797 36.4655 36.8833 36.8809 37.056C37.2962 37.2287 37.6509 37.4737 37.9449 37.791C38.2389 38.1083 38.4629 38.4933 38.6169 38.946C38.7755 39.394 38.8549 39.8957 38.8549 40.451C38.8549 41.011 38.7755 41.515 38.6169 41.963C38.4629 42.411 38.2389 42.7937 37.9449 43.111C37.6509 43.4283 37.2962 43.6733 36.8809 43.846C36.4655 44.014 35.9989 44.098 35.4809 44.098C34.9582 44.098 34.4869 44.014 34.0669 43.846C33.6515 43.6733 33.2969 43.4283 33.0029 43.111C32.7089 42.7937 32.4825 42.411 32.3239 41.963C32.1699 41.515 32.0929 41.011 32.0929 40.451C32.0929 39.8957 32.1699 39.394 32.3239 38.946C32.4825 38.4933 32.7089 38.1083 33.0029 37.791C33.2969 37.4737 33.6515 37.2287 34.0669 37.056C34.4869 36.8833 34.9582 36.797 35.4809 36.797ZM35.4809 43.125C36.1809 43.125 36.7035 42.8917 37.0489 42.425C37.3942 41.9537 37.5669 41.298 37.5669 40.458C37.5669 39.6133 37.3942 38.9553 37.0489 38.484C36.7035 38.0127 36.1809 37.777 35.4809 37.777C35.1262 37.777 34.8159 37.8377 34.5499 37.959C34.2885 38.0803 34.0692 38.2553 33.8919 38.484C33.7192 38.7127 33.5885 38.995 33.4999 39.331C33.4159 39.6623 33.3739 40.038 33.3739 40.458C33.3739 41.298 33.5465 41.9537 33.8919 42.425C34.2419 42.8917 34.7715 43.125 35.4809 43.125ZM44.2782 40.808C43.7042 40.8267 43.2142 40.8733 42.8082 40.948C42.4069 41.018 42.0779 41.1113 41.8212 41.228C41.5692 41.3447 41.3849 41.4823 41.2682 41.641C41.1562 41.7997 41.1002 41.977 41.1002 42.173C41.1002 42.3597 41.1306 42.5207 41.1912 42.656C41.2519 42.7913 41.3336 42.9033 41.4362 42.992C41.5436 43.076 41.6672 43.139 41.8072 43.181C41.9519 43.2183 42.1059 43.237 42.2692 43.237C42.4886 43.237 42.6892 43.216 42.8712 43.174C43.0532 43.1273 43.2236 43.062 43.3822 42.978C43.5456 42.894 43.6996 42.7937 43.8442 42.677C43.9936 42.5603 44.1382 42.4273 44.2782 42.278V40.808ZM40.2532 37.91C40.6452 37.532 41.0676 37.2497 41.5202 37.063C41.9729 36.8763 42.4746 36.783 43.0252 36.783C43.4219 36.783 43.7742 36.8483 44.0822 36.979C44.3902 37.1097 44.6492 37.2917 44.8592 37.525C45.0692 37.7583 45.2279 38.0407 45.3352 38.372C45.4426 38.7033 45.4962 39.0673 45.4962 39.464V44H44.9432C44.8219 44 44.7286 43.9813 44.6632 43.944C44.5979 43.902 44.5466 43.8227 44.5092 43.706L44.3692 43.034C44.1826 43.2067 44.0006 43.3607 43.8232 43.496C43.6459 43.6267 43.4592 43.7387 43.2632 43.832C43.0672 43.9207 42.8572 43.9883 42.6332 44.035C42.4139 44.0863 42.1689 44.112 41.8982 44.112C41.6229 44.112 41.3639 44.0747 41.1212 44C40.8786 43.9207 40.6662 43.804 40.4842 43.65C40.3069 43.496 40.1646 43.3023 40.0572 43.069C39.9546 42.831 39.9032 42.551 39.9032 42.229C39.9032 41.949 39.9802 41.6807 40.1342 41.424C40.2882 41.1627 40.5379 40.9317 40.8832 40.731C41.2286 40.5303 41.6789 40.367 42.2342 40.241C42.7896 40.1103 43.4709 40.0357 44.2782 40.017V39.464C44.2782 38.9133 44.1592 38.498 43.9212 38.218C43.6832 37.9333 43.3356 37.791 42.8782 37.791C42.5702 37.791 42.3112 37.8307 42.1012 37.91C41.8959 37.9847 41.7162 38.071 41.5622 38.169C41.4129 38.2623 41.2822 38.3487 41.1702 38.428C41.0629 38.5027 40.9556 38.54 40.8482 38.54C40.7642 38.54 40.6919 38.519 40.6312 38.477C40.5706 38.4303 40.5192 38.3743 40.4772 38.309L40.2532 37.91ZM52.0142 38.596C51.7809 38.2833 51.5289 38.0663 51.2582 37.945C50.9876 37.819 50.6842 37.756 50.3482 37.756C49.6902 37.756 49.1839 37.9917 48.8292 38.463C48.4746 38.9343 48.2972 39.6063 48.2972 40.479C48.2972 40.941 48.3369 41.3377 48.4162 41.669C48.4956 41.9957 48.6122 42.2663 48.7662 42.481C48.9202 42.691 49.1092 42.845 49.3332 42.943C49.5572 43.041 49.8116 43.09 50.0962 43.09C50.5069 43.09 50.8639 42.9967 51.1672 42.81C51.4752 42.6233 51.7576 42.3597 52.0142 42.019V38.596ZM53.2602 33.689V44H52.5182C52.3409 44 52.2289 43.9137 52.1822 43.741L52.0702 42.88C51.7669 43.244 51.4216 43.538 51.0342 43.762C50.6469 43.986 50.1989 44.098 49.6902 44.098C49.2842 44.098 48.9156 44.021 48.5842 43.867C48.2529 43.7083 47.9706 43.4773 47.7372 43.174C47.5039 42.8707 47.3242 42.4927 47.1982 42.04C47.0722 41.5873 47.0092 41.067 47.0092 40.479C47.0092 39.9563 47.0792 39.471 47.2192 39.023C47.3592 38.5703 47.5599 38.1783 47.8212 37.847C48.0826 37.5157 48.4022 37.2567 48.7802 37.07C49.1629 36.8787 49.5922 36.783 50.0682 36.783C50.5022 36.783 50.8732 36.8577 51.1812 37.007C51.4939 37.1517 51.7716 37.3547 52.0142 37.616V33.689H53.2602ZM16.2927 59.292C16.5214 59.6 16.7711 59.817 17.0417 59.943C17.3124 60.069 17.6157 60.132 17.9517 60.132C18.6144 60.132 19.1231 59.8963 19.4777 59.425C19.8324 58.9537 20.0097 58.2817 20.0097 57.409C20.0097 56.947 19.9677 56.5503 19.8837 56.219C19.8044 55.8877 19.6877 55.617 19.5337 55.407C19.3797 55.1923 19.1907 55.036 18.9667 54.938C18.7427 54.84 18.4884 54.791 18.2037 54.791C17.7977 54.791 17.4407 54.8843 17.1327 55.071C16.8294 55.2577 16.5494 55.5213 16.2927 55.862V59.292ZM16.2297 55.008C16.5284 54.6393 16.8737 54.343 17.2657 54.119C17.6577 53.895 18.1057 53.783 18.6097 53.783C19.0204 53.783 19.3914 53.8623 19.7227 54.021C20.0541 54.175 20.3364 54.406 20.5697 54.714C20.8031 55.0173 20.9827 55.3953 21.1087 55.848C21.2347 56.3007 21.2977 56.821 21.2977 57.409C21.2977 57.9317 21.2277 58.4193 21.0877 58.872C20.9477 59.32 20.7447 59.7097 20.4787 60.041C20.2174 60.3677 19.8954 60.6267 19.5127 60.818C19.1347 61.0047 18.7077 61.098 18.2317 61.098C17.7977 61.098 17.4244 61.0257 17.1117 60.881C16.8037 60.7317 16.5307 60.5263 16.2927 60.265V63.401H15.0397V53.909H15.7887C15.9661 53.909 16.0757 53.9953 16.1177 54.168L16.2297 55.008ZM24.1404 54.854C24.4437 54.532 24.7797 54.2753 25.1484 54.084C25.5171 53.8927 25.9417 53.797 26.4224 53.797C26.8097 53.797 27.1504 53.8623 27.4444 53.993C27.7431 54.119 27.9904 54.301 28.1864 54.539C28.3871 54.7723 28.5387 55.0547 28.6414 55.386C28.7441 55.7173 28.7954 56.0837 28.7954 56.485V61H27.5424V56.485C27.5424 55.9483 27.4187 55.533 27.1714 55.239C26.9287 54.9403 26.5577 54.791 26.0584 54.791C25.6897 54.791 25.3444 54.8797 25.0224 55.057C24.7051 55.2343 24.4111 55.4747 24.1404 55.778V61H22.8874V50.689H24.1404V54.854ZM33.683 53.797C34.201 53.797 34.6677 53.8833 35.083 54.056C35.4984 54.2287 35.853 54.4737 36.147 54.791C36.441 55.1083 36.665 55.4933 36.819 55.946C36.9777 56.394 37.057 56.8957 37.057 57.451C37.057 58.011 36.9777 58.515 36.819 58.963C36.665 59.411 36.441 59.7937 36.147 60.111C35.853 60.4283 35.4984 60.6733 35.083 60.846C34.6677 61.014 34.201 61.098 33.683 61.098C33.1604 61.098 32.689 61.014 32.269 60.846C31.8537 60.6733 31.499 60.4283 31.205 60.111C30.911 59.7937 30.6847 59.411 30.526 58.963C30.372 58.515 30.295 58.011 30.295 57.451C30.295 56.8957 30.372 56.394 30.526 55.946C30.6847 55.4933 30.911 55.1083 31.205 54.791C31.499 54.4737 31.8537 54.2287 32.269 54.056C32.689 53.8833 33.1604 53.797 33.683 53.797ZM33.683 60.125C34.383 60.125 34.9057 59.8917 35.251 59.425C35.5964 58.9537 35.769 58.298 35.769 57.458C35.769 56.6133 35.5964 55.9553 35.251 55.484C34.9057 55.0127 34.383 54.777 33.683 54.777C33.3284 54.777 33.018 54.8377 32.752 54.959C32.4907 55.0803 32.2714 55.2553 32.094 55.484C31.9214 55.7127 31.7907 55.995 31.702 56.331C31.618 56.6623 31.576 57.038 31.576 57.458C31.576 58.298 31.7487 58.9537 32.094 59.425C32.444 59.8917 32.9737 60.125 33.683 60.125ZM40.6913 61.112C40.1313 61.112 39.6997 60.9557 39.3963 60.643C39.0977 60.3303 38.9483 59.88 38.9483 59.292V54.952H38.0943C38.0197 54.952 37.9567 54.931 37.9053 54.889C37.854 54.8423 37.8283 54.7723 37.8283 54.679V54.182L38.9903 54.035L39.2773 51.844C39.2913 51.774 39.3217 51.718 39.3683 51.676C39.4197 51.6293 39.485 51.606 39.5643 51.606H40.1943V54.049H42.2453V54.952H40.1943V59.208C40.1943 59.5067 40.2667 59.7283 40.4113 59.873C40.556 60.0177 40.7427 60.09 40.9713 60.09C41.102 60.09 41.214 60.0737 41.3073 60.041C41.4053 60.0037 41.4893 59.964 41.5593 59.922C41.6293 59.88 41.6877 59.8427 41.7343 59.81C41.7857 59.7727 41.83 59.754 41.8673 59.754C41.9327 59.754 41.991 59.7937 42.0423 59.873L42.4063 60.468C42.1917 60.6687 41.9327 60.8273 41.6293 60.944C41.326 61.056 41.0133 61.112 40.6913 61.112ZM46.4799 53.797C46.9979 53.797 47.4646 53.8833 47.8799 54.056C48.2952 54.2287 48.6499 54.4737 48.9439 54.791C49.2379 55.1083 49.4619 55.4933 49.6159 55.946C49.7746 56.394 49.8539 56.8957 49.8539 57.451C49.8539 58.011 49.7746 58.515 49.6159 58.963C49.4619 59.411 49.2379 59.7937 48.9439 60.111C48.6499 60.4283 48.2952 60.6733 47.8799 60.846C47.4646 61.014 46.9979 61.098 46.4799 61.098C45.9572 61.098 45.4859 61.014 45.0659 60.846C44.6506 60.6733 44.2959 60.4283 44.0019 60.111C43.7079 59.7937 43.4816 59.411 43.3229 58.963C43.1689 58.515 43.0919 58.011 43.0919 57.451C43.0919 56.8957 43.1689 56.394 43.3229 55.946C43.4816 55.4933 43.7079 55.1083 44.0019 54.791C44.2959 54.4737 44.6506 54.2287 45.0659 54.056C45.4859 53.8833 45.9572 53.797 46.4799 53.797ZM46.4799 60.125C47.1799 60.125 47.7026 59.8917 48.0479 59.425C48.3932 58.9537 48.5659 58.298 48.5659 57.458C48.5659 56.6133 48.3932 55.9553 48.0479 55.484C47.7026 55.0127 47.1799 54.777 46.4799 54.777C46.1252 54.777 45.8149 54.8377 45.5489 54.959C45.2876 55.0803 45.0682 55.2553 44.8909 55.484C44.7182 55.7127 44.5876 55.995 44.4989 56.331C44.4149 56.6623 44.3729 57.038 44.3729 57.458C44.3729 58.298 44.5456 58.9537 44.8909 59.425C45.2409 59.8917 45.7706 60.125 46.4799 60.125Z" fill="#B8B8BB"/>
<path d="M40.75 18.75V6.25H23.25V18.75H40.75ZM20.75 4.99125C20.75 4.30625 21.3063 3.75 21.9913 3.75H42.0088C42.6938 3.75 43.25 4.30625 43.25 4.99125V25.0088C43.2497 25.3378 43.1188 25.6534 42.8861 25.8861C42.6534 26.1188 42.3378 26.2497 42.0088 26.25H21.9913C21.6622 26.2497 21.3466 26.1188 21.1139 25.8861C20.8812 25.6534 20.7503 25.3378 20.75 25.0088V4.99125ZM32 15C32.663 15 33.2989 14.7366 33.7678 14.2678C34.2366 13.7989 34.5 13.163 34.5 12.5C34.5 11.837 34.2366 11.2011 33.7678 10.7322C33.2989 10.2634 32.663 10 32 10C31.337 10 30.7011 10.2634 30.2322 10.7322C29.7634 11.2011 29.5 11.837 29.5 12.5C29.5 13.163 29.7634 13.7989 30.2322 14.2678C30.7011 14.7366 31.337 15 32 15ZM32 17.5C30.6739 17.5 29.4021 16.9732 28.4645 16.0355C27.5268 15.0979 27 13.8261 27 12.5C27 11.1739 27.5268 9.90215 28.4645 8.96447C29.4021 8.02678 30.6739 7.5 32 7.5C33.3261 7.5 34.5979 8.02678 35.5355 8.96447C36.4732 9.90215 37 11.1739 37 12.5C37 13.8261 36.4732 15.0979 35.5355 16.0355C34.5979 16.9732 33.3261 17.5 32 17.5ZM24.5 7.5H27V10H24.5V7.5ZM24.5 21.25V23.75H39.5V21.25H24.5Z" fill="#B8B8BB"/>
</svg>
