<svg width="441" height="146" viewBox="0 0 441 146" fill="none" xmlns="http://www.w3.org/2000/svg">
<path d="M1.37222 34.307C1.37222 29.8182 2.01348 25.65 3.29599 21.8025C4.63681 17.9549 6.53144 14.632 8.97988 11.8338C11.4866 8.97731 14.518 6.76205 18.0741 5.18805C21.6302 3.55576 25.6818 2.73961 30.2289 2.73961C34.7177 2.73961 38.7401 3.58491 42.2962 5.2755C45.9106 6.90779 48.942 9.1522 51.3904 12.0087C53.8971 14.8652 55.8209 18.2173 57.1617 22.0648C58.5025 25.8541 59.1729 29.9348 59.1729 34.307C59.1729 38.6792 58.5025 42.7891 57.1617 46.6367C55.8792 50.4842 53.9846 53.8654 51.4778 56.7802C48.9711 59.6367 45.9397 61.9103 42.3836 63.6009C38.8276 65.2332 34.776 66.0493 30.2289 66.0493C25.6818 66.0493 21.6302 65.2332 18.0741 63.6009C14.518 61.9103 11.4866 59.6367 8.97988 56.7802C6.53144 53.8654 4.63681 50.4842 3.29599 46.6367C2.01348 42.7891 1.37222 38.6792 1.37222 34.307ZM9.85432 34.307C9.85432 37.455 10.2915 40.5156 11.166 43.4887C12.0987 46.4618 13.4395 49.0851 15.1884 51.3587C16.9373 53.6322 19.0651 55.4686 21.5719 56.8677C24.1369 58.2085 27.0226 58.8789 30.2289 58.8789C33.61 58.8789 36.554 58.2668 39.0607 57.0426C41.6258 55.76 43.7536 54.0403 45.4442 51.8833C47.1931 49.6681 48.5047 47.0739 49.3792 44.1008C50.2536 41.0694 50.6908 37.8048 50.6908 34.307C50.6908 31.159 50.2245 28.1276 49.2917 25.2128C48.359 22.298 47.0182 19.7038 45.2693 17.4303C43.5204 15.1567 41.3634 13.3495 38.7984 12.0087C36.2917 10.6096 33.4352 9.91004 30.2289 9.91004C27.0226 9.91004 24.1369 10.5513 21.5719 11.8338C19.0651 13.058 16.9373 14.7778 15.1884 16.993C13.4395 19.15 12.0987 21.715 11.166 24.6881C10.2915 27.6613 9.85432 30.8675 9.85432 34.307ZM95.1775 27.1366C94.0699 26.6702 92.7582 26.437 91.2425 26.437C89.6102 26.437 88.007 26.7868 86.433 27.4864C84.9173 28.1859 83.5474 29.2353 82.3232 30.6344C81.1572 32.0335 80.1953 33.8407 79.4375 36.0559C78.7379 38.2129 78.3882 40.7779 78.3882 43.751V65H70.5182V19.5289H78.1258V29.4101C78.6505 28.011 79.3501 26.6411 80.2245 25.3003C81.0989 23.9594 82.1191 22.7935 83.285 21.8025C84.5093 20.8114 85.9084 20.0244 87.4824 19.4415C89.0564 18.8002 90.8053 18.4796 92.729 18.4796C93.6035 18.4796 94.4488 18.5379 95.2649 18.6545C96.1394 18.7128 96.8972 18.8294 97.5385 19.0043L95.1775 27.1366ZM120.024 66.0493C117.226 66.0493 114.573 65.4955 112.067 64.3879C109.618 63.2803 107.461 61.7063 105.596 59.6659C103.788 57.6255 102.36 55.1771 101.311 52.3206C100.262 49.4058 99.7369 46.1412 99.7369 42.5268C99.7369 39.0873 100.262 35.9102 101.311 32.9954C102.419 30.0223 103.876 27.4864 105.683 25.3877C107.549 23.2307 109.706 21.5401 112.154 20.3159C114.602 19.0917 117.197 18.4796 119.937 18.4796C122.968 18.4796 125.562 19.0917 127.719 20.3159C129.934 21.5401 131.654 22.7935 132.878 24.076V0.291168H140.748V53.982C140.748 56.1973 141.273 57.6547 142.322 58.3542C143.43 58.9955 144.625 59.3161 145.908 59.3161L144.246 65.4372C138.708 65.4372 135.327 63.222 134.103 58.7914C132.762 60.6569 130.955 62.3475 128.681 63.8632C126.407 65.3206 123.522 66.0493 120.024 66.0493ZM121.773 59.0538C123.93 59.0538 125.97 58.5583 127.894 57.5672C129.876 56.5179 131.537 55.1771 132.878 53.5448V30.9841C131.771 29.585 130.226 28.3025 128.244 27.1366C126.32 25.9124 124.134 25.3003 121.685 25.3003C119.587 25.3003 117.663 25.7375 115.914 26.6119C114.224 27.4864 112.766 28.6814 111.542 30.1971C110.318 31.7128 109.385 33.52 108.744 35.6187C108.102 37.6591 107.782 39.8743 107.782 42.2645C107.782 44.7129 108.132 46.9573 108.831 48.9977C109.531 51.038 110.493 52.8161 111.717 54.3318C112.999 55.7892 114.486 56.9551 116.176 57.8296C117.925 58.6457 119.791 59.0538 121.773 59.0538ZM160.556 45.4999C161.08 49.7555 162.567 53.0784 165.015 55.4686C167.464 57.8587 170.699 59.0538 174.722 59.0538C177.345 59.0538 179.706 58.7914 181.805 58.2668C183.903 57.6838 185.915 56.9551 187.838 56.0807L189.675 62.8139C187.576 63.8049 185.215 64.5919 182.592 65.1749C179.968 65.7579 177.024 66.0493 173.76 66.0493C170.495 66.0493 167.551 65.5247 164.928 64.4753C162.305 63.3677 160.06 61.8229 158.195 59.8408C156.388 57.8004 154.989 55.3228 153.997 52.408C153.006 49.4349 152.511 46.0537 152.511 42.2645C152.511 38.8833 153.006 35.7353 153.997 32.8205C154.989 29.9057 156.388 27.3989 158.195 25.3003C160.002 23.1433 162.159 21.4819 164.666 20.3159C167.172 19.0917 169.971 18.4796 173.06 18.4796C176.325 18.4796 179.181 19.0334 181.63 20.141C184.078 21.2487 186.119 22.7644 187.751 24.6881C189.383 26.6119 190.608 28.8563 191.424 31.4214C192.24 33.9864 192.648 36.6972 192.648 39.5537C192.648 41.5941 192.56 43.5761 192.386 45.4999H160.556ZM172.885 25.3003C169.446 25.3003 166.619 26.4662 164.403 28.798C162.246 31.1299 160.935 34.5694 160.468 39.1165H185.39C185.39 34.686 184.282 31.2756 182.067 28.8855C179.852 26.4953 176.791 25.3003 172.885 25.3003ZM227.796 27.1366C226.688 26.6702 225.376 26.437 223.861 26.437C222.228 26.437 220.625 26.7868 219.051 27.4864C217.536 28.1859 216.166 29.2353 214.941 30.6344C213.775 32.0335 212.814 33.8407 212.056 36.0559C211.356 38.2129 211.006 40.7779 211.006 43.751V65H203.136V19.5289H210.744V29.4101C211.269 28.011 211.968 26.6411 212.843 25.3003C213.717 23.9594 214.737 22.7935 215.903 21.8025C217.128 20.8114 218.527 20.0244 220.101 19.4415C221.675 18.8002 223.424 18.4796 225.347 18.4796C226.222 18.4796 227.067 18.5379 227.883 18.6545C228.758 18.7128 229.515 18.8294 230.157 19.0043L227.796 27.1366ZM265.416 85.2871C263.667 85.2871 262.122 85.1122 260.781 84.7624C259.499 84.4127 258.479 84.0046 257.721 83.5382L259.47 76.9799C260.169 77.388 261.015 77.7377 262.006 78.0292C263.055 78.3207 264.25 78.4664 265.591 78.4664C266.815 78.4664 267.952 78.2915 269.001 77.9418C270.109 77.592 271.158 76.9799 272.149 76.1054C273.14 75.231 274.073 74.0359 274.947 72.5202C275.88 71.0045 276.784 69.1099 277.658 66.8363L279.669 61.5897H275.472L257.721 21.6276L264.716 18.4796L281.681 56.343L294.885 18.8294L302.143 21.6276L285.441 67.2736C284.158 70.7713 282.788 73.657 281.331 75.9305C279.932 78.2624 278.416 80.1279 276.784 81.527C275.151 82.9261 273.373 83.888 271.45 84.4127C269.584 84.9956 267.573 85.2871 265.416 85.2871ZM342.096 42.2645C342.096 39.9909 341.718 37.8339 340.96 35.7936C340.26 33.7532 339.24 31.9752 337.899 30.4595C336.617 28.9438 335.072 27.7487 333.265 26.8743C331.516 25.9415 329.592 25.4751 327.493 25.4751C322.888 25.4751 319.303 26.9908 316.738 30.0223C314.173 33.0537 312.89 37.0761 312.89 42.0896C312.89 44.3631 313.24 46.5492 313.939 48.6479C314.697 50.6883 315.717 52.4955 317 54.0695C318.341 55.5852 319.886 56.8094 321.634 57.7421C323.442 58.6166 325.395 59.0538 327.493 59.0538C329.767 59.0538 331.807 58.6457 333.614 57.8296C335.422 57.0134 336.937 55.8766 338.161 54.4192C339.444 52.9035 340.406 51.1255 341.047 49.0851C341.747 47.0448 342.096 44.7712 342.096 42.2645ZM304.845 42.2645C304.845 38.5918 305.428 35.2981 306.594 32.3832C307.76 29.4101 309.334 26.9034 311.316 24.863C313.356 22.8227 315.747 21.2487 318.486 20.141C321.285 19.0334 324.287 18.4796 327.493 18.4796C330.641 18.4796 333.585 19.0334 336.325 20.141C339.123 21.2487 341.543 22.8227 343.583 24.863C345.623 26.9034 347.227 29.381 348.392 32.2958C349.558 35.2106 350.141 38.4752 350.141 42.0896C350.141 45.7039 349.558 48.9977 348.392 51.9708C347.285 54.8856 345.711 57.3923 343.67 59.491C341.63 61.5897 339.211 63.222 336.413 64.3879C333.673 65.4955 330.7 66.0493 327.493 66.0493C324.229 66.0493 321.197 65.4664 318.399 64.3004C315.659 63.1345 313.269 61.5022 311.229 59.4036C309.247 57.3049 307.673 54.7982 306.507 51.8833C305.399 48.9685 304.845 45.7622 304.845 42.2645ZM401.266 65.4372C398.468 65.4372 396.253 64.8834 394.62 63.7758C392.988 62.6682 391.851 61.065 391.21 58.9663C389.17 61.065 386.809 62.7847 384.127 64.1256C381.504 65.4081 378.618 66.0493 375.47 66.0493C373.488 66.0493 371.564 65.7287 369.699 65.0874C367.892 64.5045 366.259 63.5426 364.802 62.2018C363.403 60.861 362.266 59.1121 361.392 56.9551C360.575 54.7982 360.167 52.1748 360.167 49.0851V19.5289H368.037V48.0358C368.037 51.5919 368.766 54.3318 370.224 56.2556C371.739 58.121 373.984 59.0538 376.957 59.0538C379.405 59.0538 381.737 58.5874 383.952 57.6547C386.168 56.6636 388.15 55.352 389.898 53.7197V19.5289H397.768V53.195C397.768 54.4775 397.914 55.5269 398.206 56.343C398.497 57.1009 398.876 57.713 399.342 58.1793C399.809 58.5874 400.363 58.8789 401.004 59.0538C401.645 59.2287 402.286 59.3161 402.928 59.3161L401.266 65.4372ZM438.038 27.1366C436.93 26.6702 435.619 26.437 434.103 26.437C432.471 26.437 430.868 26.7868 429.294 27.4864C427.778 28.1859 426.408 29.2353 425.184 30.6344C424.018 32.0335 423.056 33.8407 422.298 36.0559C421.598 38.2129 421.249 40.7779 421.249 43.751V65H413.379V19.5289H420.986V29.4101C421.511 28.011 422.211 26.6411 423.085 25.3003C423.959 23.9594 424.98 22.7935 426.146 21.8025C427.37 20.8114 428.769 20.0244 430.343 19.4415C431.917 18.8002 433.666 18.4796 435.59 18.4796C436.464 18.4796 437.309 18.5379 438.125 18.6545C439 18.7128 439.758 18.8294 440.399 19.0043L438.038 27.1366ZM21.2221 145.049C18.4239 145.049 15.7714 144.496 13.2647 143.388C10.8162 142.28 8.65925 140.706 6.79377 138.666C4.98659 136.626 3.55833 134.177 2.509 131.321C1.45966 128.406 0.934997 125.141 0.934997 121.527C0.934997 118.087 1.45966 114.91 2.509 111.995C3.61662 109.022 5.07403 106.486 6.88121 104.388C8.74669 102.231 10.9037 100.54 13.3521 99.3159C15.8005 98.0917 18.3947 97.4796 21.1346 97.4796C24.1661 97.4796 26.7602 98.0917 28.9172 99.3159C31.1325 100.54 32.8522 101.794 34.0764 103.076V79.2912H41.9464V132.982C41.9464 135.197 42.4711 136.655 43.5204 137.354C44.628 137.995 45.8231 138.316 47.1056 138.316L45.4442 144.437C39.906 144.437 36.5249 142.222 35.3006 137.791C33.9598 139.657 32.1526 141.348 29.8791 142.863C27.6055 144.321 24.7199 145.049 21.2221 145.049ZM22.971 138.054C25.1279 138.054 27.1683 137.558 29.0921 136.567C31.0742 135.518 32.7356 134.177 34.0764 132.545V109.984C32.9688 108.585 31.4239 107.303 29.4419 106.137C27.5181 104.912 25.332 104.3 22.8835 104.3C20.7849 104.3 18.8611 104.737 17.1122 105.612C15.4216 106.486 13.9642 107.681 12.74 109.197C11.5158 110.713 10.583 112.52 9.94177 114.619C9.30051 116.659 8.97988 118.874 8.97988 121.264C8.97988 123.713 9.32966 125.957 10.0292 127.998C10.7288 130.038 11.6907 131.816 12.9149 133.332C14.1974 134.789 15.6839 135.955 17.3745 136.83C19.1234 137.646 20.9889 138.054 22.971 138.054ZM82.2829 106.137C81.1752 105.67 79.8636 105.437 78.3479 105.437C76.7156 105.437 75.1124 105.787 73.5384 106.486C72.0227 107.186 70.6528 108.235 69.4285 109.634C68.2626 111.033 67.3007 112.841 66.5429 115.056C65.8433 117.213 65.4935 119.778 65.4935 122.751V144H57.6235V98.5289H65.2312V108.41C65.7559 107.011 66.4554 105.641 67.3299 104.3C68.2043 102.959 69.2245 101.794 70.3904 100.802C71.6146 99.8114 73.0137 99.0244 74.5877 98.4415C76.1617 97.8002 77.9106 97.4796 79.8344 97.4796C80.7089 97.4796 81.5541 97.5379 82.3703 97.6545C83.2447 97.7128 84.0026 97.8294 84.6439 98.0043L82.2829 106.137ZM100.42 144H92.5501V98.5289H100.42V144ZM96.4851 90.7464C94.9693 90.7464 93.6577 90.2217 92.5501 89.1724C91.5007 88.0648 90.9761 86.7531 90.9761 85.2374C90.9761 83.5468 91.4716 82.206 92.4626 81.2149C93.4536 80.2239 94.7945 79.7284 96.4851 79.7284C98.0008 79.7284 99.2833 80.2822 100.333 81.3898C101.44 82.4392 101.994 83.7217 101.994 85.2374C101.994 86.928 101.499 88.2688 100.507 89.2598C99.5165 90.2509 98.1756 90.7464 96.4851 90.7464ZM122.019 106.137C123.651 103.688 125.721 101.648 128.227 100.015C130.792 98.3249 133.824 97.4796 137.322 97.4796C142.452 97.4796 146.27 99.0244 148.777 102.114C151.342 105.204 152.624 109.285 152.624 114.356V144H144.754V115.231C144.754 111.908 143.996 109.285 142.481 107.361C140.965 105.379 138.808 104.388 136.01 104.388C134.669 104.388 133.357 104.65 132.075 105.175C130.792 105.641 129.539 106.311 128.315 107.186C127.149 108.06 126.041 109.081 124.992 110.246C124.001 111.412 123.097 112.637 122.281 113.919V144H114.411V98.5289H122.019V106.137ZM166.16 79.2912H174.03V116.28L194.58 97.6545L199.127 102.639L181.551 118.204L202.975 139.628L197.553 144.874L174.03 120.652V144H166.16V79.2912ZM210.21 133.769C211.726 135.11 213.62 136.188 215.894 137.004C218.226 137.821 220.703 138.229 223.327 138.229C226.591 138.229 229.04 137.704 230.672 136.655C232.362 135.547 233.208 134.148 233.208 132.457C233.208 131.583 233.033 130.767 232.683 130.009C232.392 129.251 231.809 128.522 230.934 127.823C230.118 127.123 228.981 126.453 227.524 125.812C226.066 125.112 224.172 124.354 221.84 123.538C217.526 122.081 214.32 120.361 212.221 118.379C210.122 116.338 209.073 113.54 209.073 109.984C209.073 108.235 209.452 106.603 210.21 105.087C211.026 103.572 212.163 102.26 213.62 101.152C215.136 99.9863 216.943 99.0827 219.042 98.4415C221.199 97.8002 223.647 97.4796 226.387 97.4796C229.36 97.4796 231.954 97.8002 234.17 98.4415C236.443 99.0244 238.484 99.7823 240.291 100.715L238.105 107.186C236.531 106.253 234.723 105.495 232.683 104.912C230.701 104.329 228.486 104.038 226.037 104.038C223.006 104.038 220.703 104.65 219.129 105.874C217.555 107.098 216.768 108.439 216.768 109.897C216.768 110.596 216.885 111.238 217.118 111.82C217.409 112.403 217.905 112.957 218.605 113.482C219.304 114.007 220.237 114.531 221.403 115.056C222.569 115.581 224.026 116.134 225.775 116.717C228.631 117.708 231.051 118.729 233.033 119.778C235.015 120.769 236.618 121.877 237.842 123.101C239.066 124.325 239.941 125.666 240.466 127.123C240.99 128.522 241.253 130.096 241.253 131.845C241.253 133.886 240.815 135.722 239.941 137.354C239.066 138.987 237.842 140.386 236.268 141.552C234.694 142.659 232.771 143.504 230.497 144.087C228.282 144.729 225.804 145.049 223.064 145.049C219.566 145.049 216.448 144.612 213.708 143.738C210.968 142.863 208.694 141.726 206.887 140.327L210.21 133.769ZM254 80.2531H262.744V102.027L261.607 125.899H255.136L254 102.027V80.2531ZM252.601 139.191C252.601 137.383 253.096 135.955 254.087 134.906C255.136 133.856 256.594 133.332 258.459 133.332C259.975 133.332 261.316 133.915 262.482 135.081C263.706 136.247 264.318 137.617 264.318 139.191C264.318 140.939 263.764 142.368 262.657 143.475C261.549 144.525 260.15 145.049 258.459 145.049C256.885 145.049 255.515 144.466 254.349 143.3C253.184 142.135 252.601 140.765 252.601 139.191Z" fill="#534A4A"/>
</svg>
