<svg width="226" height="172" viewBox="0 0 226 172" fill="none" xmlns="http://www.w3.org/2000/svg">
<path d="M224.084 157.946L173.411 91.7941C170.383 87.8416 165.68 85.5242 160.687 85.5242H65.2127C60.2195 85.5242 55.5162 87.8416 52.4881 91.7941L1.81962 157.946C-2.44187 163.511 1.5435 171.526 8.57542 171.526H217.329C224.36 171.521 228.346 163.506 224.084 157.946Z" fill="url(#paint0_linear)"/>
<path d="M4.67266 158.084C3.33346 158.084 2.09091 158.478 1.04625 159.151C-1.86224 164.596 2.04029 171.521 8.57519 171.521H217.328C223.863 171.521 227.766 164.596 224.857 159.151C223.813 158.478 222.57 158.084 221.231 158.084H4.67266Z" fill="#C9CDD3"/>
<path d="M91.2003 119.544L127.455 158.084H112.637L80.5511 124.183L91.2003 119.544Z" fill="white"/>
<path d="M166.619 86.6692C164.755 85.9273 162.748 85.5288 160.691 85.5288H142.274L14.6915 141.143L1.81957 157.946C1.62168 158.207 1.4468 158.473 1.28113 158.739L166.619 86.6692Z" fill="#FEE379"/>
<path d="M1.28577 158.739L80.5513 124.183L112.637 158.084L1.28577 158.739Z" fill="#86ADFF"/>
<path d="M14.6914 141.143L142.274 85.5288H65.2126C60.2194 85.5288 55.5161 87.8462 52.488 91.7987L14.6914 141.143Z" fill="#69CA9F"/>
<path d="M191.502 115.413L187.585 110.302L163.728 120.68L141.878 97.4503L131.371 102.03L153.213 125.25L112.949 142.764L117.561 147.568L157.76 130.087L184.097 158.084H198.911L168.275 125.511L191.502 115.413Z" fill="#C9CDD3"/>
<path opacity="0.3" d="M175.625 94.684L173.411 91.7941C170.383 87.8416 165.68 85.5242 160.687 85.5242H112.95V121.852L175.625 94.684Z" fill="url(#paint1_linear)"/>
<path d="M107.496 1.19872C89.263 3.62608 75.3234 18.1673 73.6253 36.3954C72.4564 48.9352 77.2149 60.3941 85.4341 68.3357C88.6003 71.3951 91.541 74.6606 94.2378 78.1047C101.891 87.8736 107.133 99.2959 109.843 111.382L112.025 121.11C112.121 121.545 112.508 121.852 112.954 121.852C113.401 121.852 113.787 121.545 113.884 121.11L116.199 110.769C118.831 99.0166 123.88 87.9011 131.27 78.3703C133.907 74.972 136.798 71.7707 139.959 68.8258C147.649 61.6582 152.458 51.4633 152.458 40.1463C152.454 16.6468 131.744 -2.0347 107.496 1.19872Z" fill="url(#paint2_linear)"/>
<path d="M121.609 51.857C126.391 47.0977 126.391 39.3813 121.609 34.622C116.827 29.8626 109.073 29.8626 104.291 34.622C99.5084 39.3813 99.5084 47.0977 104.291 51.857C109.073 56.6164 116.827 56.6164 121.609 51.857Z" fill="white"/>
<defs>
<linearGradient id="paint0_linear" x1="17.683" y1="72.0291" x2="180.048" y2="207.643" gradientUnits="userSpaceOnUse">
<stop stop-color="#F6F8FF"/>
<stop offset="1" stop-color="#DEE0ED"/>
</linearGradient>
<linearGradient id="paint1_linear" x1="187.711" y1="63.7375" x2="105.623" y2="114.067" gradientUnits="userSpaceOnUse">
<stop/>
<stop offset="1"/>
</linearGradient>
<linearGradient id="paint2_linear" x1="124.249" y1="82.6127" x2="95.6202" y2="-14.2148" gradientUnits="userSpaceOnUse">
<stop stop-color="#5565EE"/>
<stop offset="0.3091" stop-color="#5F75FF"/>
<stop offset="0.5137" stop-color="#6E89FA"/>
<stop offset="0.7638" stop-color="#6E89FA"/>
<stop offset="1" stop-color="#7D99FD"/>
</linearGradient>
</defs>
</svg>
